<?xml version="1.0" encoding="UTF-8"?>
<svg version="1.1" viewBox="0 0 1024 1024" width="1280" height="1280" xmlns="http://www.w3.org/2000/svg">
<path transform="translate(421,181)" d="m0 0 5 2 11 13 36 44 11 13 8 10 9 11 8 10h2l11-14 11-13 11-14 12-14 11-14 8-9 11-14 7-9 3-2 38 3 40 5 40 7 40 9 33 9 35 11 32 12 26 11 7 4-1 4-11 13-7 8-11 11-14 11-14 10-22 13-27 13h-4l-4-16-7-14-7-8-10-6-11-5-19-5-21-3-26-2-43-1-2 1-12 69-9 50-13 72-10 58-9 49-15 85-19 107-9 51-6 32-8 45-5 29h-2l-4-20-23-128-21-117-19-106-21-117-23-128-6-32-45 1-27 2-25 4-18 6-11 6-10 9-6 10-3 8-3 14-3 1-22-10-24-14-16-11-16-13-13-12-12-14-6-8 1-3 27-12 35-13 40-13 38-10 43-9 36-6 33-4z" fill="#E11036"/>
<path transform="translate(505,101)" d="m0 0 47 1 47 3 39 4 50 7 39 7 49 11 41 11 42 13 35 12 28 11 2 1-3 9-12 25-8 14-25-10-26-10-22-8-25-8-43-12-42-10-44-8-37-5-41-4-33-2-32-1h-45l-50 2-46 4-45 6-43 8-43 10-36 10-46 15-39 15-17 7-4-1-10-19-11-24 1-4 40-15 36-12 33-10 42-11 40-9 44-8 48-7 52-5 35-2z" fill="#E11036"/>
</svg>
